<svg xmlns="http://www.w3.org/2000/svg" xmlns:xlink="http://www.w3.org/1999/xlink" version="1.1" x="0px" y="0px" viewBox="0 0 68 85" style="enable-background:new 0 0 68 68;" xml:space="preserve"><style type="text/css">
	.st0{fill:#010101;}
</style><g><g><path class="st0" d="M54.8,19.3c-10.7-11.5-7.2-7.7-16.6-18C38,1.2,37.7,1,37.4,1H2C1.4,1,1,1.4,1,2v64c0,0.6,0.4,1,1,1h52.2    c0.6,0,1-0.4,1-1V20.2c0,0,0-0.1,0-0.1C55.2,19.8,55.1,19.5,54.8,19.3z M38.5,4.6c7.5,8.1,4.4,4.8,13.4,14.5H38.5V4.6z M3,65V3    h33.5v17.1c0,0.6,0.4,1,1,1h15.7V65H3z"/></g><g><path class="st0" d="M62.2,20.8c-2.6,0-4.8,2.1-4.8,4.8v28c0,0,0,0.3,0,0.3l3.8,12.4c0.1,0.4,0.5,0.7,1,0.7c0.4,0,0.8-0.3,1-0.7    L67,53.9c0,0,0-0.3,0-0.3v-28C67,23,64.9,20.8,62.2,20.8z M59.5,31.1H65v2.4h-5.5V31.1z M59.5,35.5H65v17.1h-5.5V35.5z M62.2,22.8    c1.5,0,2.8,1.2,2.8,2.8v3.5h-5.5v-3.5C59.5,24.1,60.7,22.8,62.2,22.8z M62.2,62.6l-2.4-8h4.9L62.2,62.6z"/></g><g><path class="st0" d="M9.2,25.8L7.5,28c-0.3,0.4-0.3,1,0.1,1.3l2.3,2.3c0.4,0.4,0.9,0.4,1.3,0.1l2.2-1.7c1,0.6,2.1,1,3.2,1.3    l0.4,2.8c0.1,0.5,0.5,0.9,1,0.9h3.3c0.5,0,0.9-0.4,1-0.9l0.4-2.8c1.1-0.3,2.2-0.7,3.2-1.3l2.2,1.7c0.2,0.1,0.4,0.2,0.6,0.2    c0.3,0,0.6-0.1,0.8-0.3l2.3-2.3C32,29,32,28.4,31.7,28L30,25.8c0.6-1,1-2.1,1.3-3.2l2.8-0.4c0.5-0.1,0.9-0.5,0.9-1V18    c0-0.5-0.4-0.9-0.9-1l-2.8-0.4c-0.3-1.1-0.7-2.2-1.3-3.2l1.7-2.2c0.3-0.4,0.2-1-0.1-1.4l-2.3-2.3C29,7.2,28.4,7.1,28,7.4l-2.2,1.7    c-1-0.6-2.1-1-3.2-1.3L22.2,5c-0.1-0.5-0.5-0.9-1-0.9H18c-0.5,0-0.9,0.4-1,0.9l-0.4,2.8c-1.1,0.3-2.2,0.7-3.2,1.3l-2.2-1.7    c-0.4-0.3-1-0.3-1.3,0.1L7.5,9.8c-0.4,0.4-0.4,0.9-0.1,1.3l1.7,2.2c-0.6,1-1,2.1-1.3,3.2L5.1,17c-0.5,0.1-0.9,0.5-0.9,1v3.3    c0,0.5,0.4,0.9,0.9,1l2.8,0.4C8.1,23.7,8.5,24.8,9.2,25.8z M6.2,18.8l2.6-0.3c0.4-0.1,0.8-0.4,0.8-0.8c0.3-1.4,0.8-2.7,1.6-3.8    c0.2-0.4,0.2-0.8,0-1.2l-1.6-2.1l1.1-1.1l2,1.6c0.3,0.3,0.9,0.3,1.2,0c1.1-0.8,2.4-1.3,3.8-1.6c0.4-0.1,0.7-0.4,0.8-0.9l0.3-2.6    h1.5l0.3,2.6c0.1,0.4,0.4,0.8,0.8,0.9c1.4,0.3,2.7,0.8,3.8,1.6c0.4,0.2,0.8,0.2,1.2,0l2.1-1.6l1.1,1.1L28,12.7    c-0.3,0.3-0.3,0.8,0,1.2c0.8,1.2,1.3,2.4,1.6,3.8c0.1,0.4,0.4,0.7,0.8,0.8l2.6,0.3v1.5l-2.6,0.3c-0.4,0.1-0.8,0.4-0.9,0.8    c-0.3,1.4-0.8,2.7-1.6,3.8c-0.2,0.4-0.2,0.8,0,1.2l1.6,2.1l-1.1,1.1L26.5,28c-0.3-0.3-0.8-0.3-1.2,0c-1.1,0.8-2.4,1.3-3.8,1.6    c-0.4,0.1-0.7,0.4-0.8,0.9L20.3,33h-1.5l-0.3-2.6c-0.1-0.4-0.4-0.8-0.8-0.9c-1.4-0.3-2.7-0.8-3.8-1.6c-0.4-0.2-0.8-0.2-1.2,0    l-2.1,1.6l-1.1-1.1l1.6-2c0.3-0.3,0.3-0.9,0-1.2c-0.8-1.1-1.3-2.4-1.6-3.8c-0.1-0.4-0.4-0.7-0.9-0.8l-2.6-0.3V18.8z"/></g><g><path class="st0" d="M19.6,27.1c4.2,0,7.5-3.4,7.5-7.5c0-4.1-3.4-7.5-7.5-7.5s-7.5,3.4-7.5,7.5C12.1,23.7,15.4,27.1,19.6,27.1z     M19.6,14.1c3.1,0,5.5,2.5,5.5,5.5s-2.5,5.5-5.5,5.5c-3.1,0-5.5-2.5-5.5-5.5S16.5,14.1,19.6,14.1z"/></g><g><path class="st0" d="M48.2,26.1h-9.8l1.6-1.6c0.4-0.4,0.4-1,0-1.4c-0.4-0.4-1-0.4-1.4,0l-3.4,3.3c0,0,0,0,0,0    c-0.2,0.2-0.3,0.4-0.3,0.7c0,0.3,0.1,0.5,0.3,0.7c0,0,0,0,0,0l3.4,3.3c0.4,0.4,1,0.4,1.4,0c0.4-0.4,0.4-1,0-1.4l-1.6-1.6h8.8v9.6    h-30c-0.6,0-1,0.4-1,1v3.1c-2.8,0.5-5,2.9-5,5.9c0,2.1,1.1,3.9,2.7,5h-0.1C10,52.6,7,55.7,7,59.4v2.9c0,0.6,0.4,1,1,1h18.3    c0.6,0,1-0.4,1-1v-2.9c0-3.7-3-6.8-6.8-6.8c1.6-1.1,2.7-2.9,2.7-5c0-2.9-2.2-5.4-5-5.9v-2.1h20v2.1c-2.8,0.5-5,2.9-5,5.9    c0,2.1,1.1,3.9,2.7,5h-0.1c-3.8,0-6.8,3.1-6.8,6.8v2.9c0,0.6,0.4,1,1,1h18.3c0.6,0,1-0.4,1-1v-2.9c0-3.7-3-6.8-6.8-6.8    c1.6-1.1,2.7-2.9,2.7-5c0-2.9-2.2-5.4-5-5.9v-2.1h8.1c0.6,0,1-0.4,1-1V27.1C49.2,26.5,48.8,26.1,48.2,26.1z M25.3,59.4v1.9H9v-1.9    c0-2.7,2.2-4.8,4.8-4.8h6.7C23.1,54.6,25.3,56.8,25.3,59.4z M21.2,47.7c0,2.2-1.8,4-4,4c-2.2,0-4-1.8-4-4c0-2.2,1.8-4,4-4    C19.4,43.7,21.2,45.5,21.2,47.7z M47.2,59.4v1.9H30.9v-1.9c0-2.7,2.2-4.8,4.8-4.8h6.7C45.1,54.6,47.2,56.8,47.2,59.4z M43.1,47.7    c0,2.2-1.8,4-4,4s-4-1.8-4-4c0-2.2,1.8-4,4-4S43.1,45.5,43.1,47.7z"/></g></g><text x="0" y="83" fill="#000000" font-size="5px" font-weight="bold" font-family="'Helvetica Neue', Helvetica, Arial-Unicode, Arial, Sans-serif">Created by Vectors Market</text><text x="0" y="88" fill="#000000" font-size="5px" font-weight="bold" font-family="'Helvetica Neue', Helvetica, Arial-Unicode, Arial, Sans-serif">from the Noun Project</text></svg>