<svg xmlns="http://www.w3.org/2000/svg" xmlns:xlink="http://www.w3.org/1999/xlink" version="1.1" x="0px" y="0px" viewBox="0 0 100 125" enable-background="new 0 0 100 100" xml:space="preserve"><path fill-rule="evenodd" clip-rule="evenodd" d="M83.419,42.004c1.411-3.235,1.998-4.545,1.65-9.393  c-0.564-7.88-3.884-14.796-7.973-19.458C66.777,1.386,39.163,1.634,27.233,11.986c-5.86,5.084-12.032,13.047-12.243,23.172  c-0.266,12.797,5.457,21.062,10.712,29.076c1.683,2.565,3.964,5.666,4.372,8.745c0.851,6.425-0.081,11.673-2.775,15.739  c-1.888,2.852-3.598,5.331-5.4,7.566h42.705c-2.104-3.879-2.847-10.273,0.078-10.266c4.331,0.124,7.421,1.17,11.738,0.514  c3.263-0.496,5.276-1.393,5.903-4.373c0.733-3.488-1.201-3.955-0.875-5.684c0.449-2.388,1.917-3.572,2.661-6.34  c1.011-3.763-0.847-6.039,0.747-6.809c2.104-1.321,3.938-1.238,5.773-3.029C93.667,57.453,81.771,46.227,83.419,42.004z   M43.181,43.59l-0.607,5.078c0.107,0.69-0.098,1.423-0.631,1.957c-0.092,0.091-0.191,0.164-0.293,0.237  c-0.006,0.007-0.014,0.013-0.021,0.019c-0.035,0.024-0.07,0.047-0.105,0.068c-0.441,0.305-0.986,0.463-1.56,0.396l-5.765-0.688  c-1.248-0.148-2.135-1.286-1.988-2.525c0.148-1.248,1.279-2.136,2.527-1.988l0.582,0.069c-4.895-8.369-3.76-19.323,3.406-26.491  c0.889-0.891,2.328-0.891,3.217,0c0.443,0.441,0.666,1.023,0.666,1.605s-0.223,1.164-0.666,1.607  c-5.389,5.389-6.461,13.474-3.24,19.95c0.227-1.156,1.301-1.965,2.49-1.821c1.154,0.138,2.004,1.118,2.004,2.254  C43.197,43.407,43.191,43.498,43.181,43.59z M70.56,22.886c-0.148,1.248-1.279,2.137-2.525,1.988l-0.584-0.07  c1.988,3.396,2.982,7.219,2.982,11.041c0,5.597-2.129,11.192-6.39,15.452c-0.889,0.89-2.326,0.89-3.215,0  c-0.889-0.887-0.889-2.325,0-3.215c5.388-5.389,6.458-13.474,3.24-19.95c-0.227,1.154-1.301,1.963-2.49,1.82  c-1.248-0.148-2.137-1.281-1.988-2.525l0.605-5.074c-0.109-0.693,0.098-1.426,0.633-1.959c0.092-0.094,0.193-0.17,0.297-0.244  c0.002,0,0.004-0.004,0.006-0.006c0.002,0,0.004-0.002,0.006-0.002c0.039-0.029,0.08-0.055,0.119-0.078  c0.439-0.303,0.982-0.459,1.553-0.393l5.763,0.689c1.156,0.137,2.004,1.119,2.004,2.254C70.575,22.704,70.571,22.794,70.56,22.886z"/><text x="0" y="115" fill="#000000" font-size="5px" font-weight="bold" font-family="'Helvetica Neue', Helvetica, Arial-Unicode, Arial, Sans-serif">Created by corpus delicti</text><text x="0" y="120" fill="#000000" font-size="5px" font-weight="bold" font-family="'Helvetica Neue', Helvetica, Arial-Unicode, Arial, Sans-serif">from the Noun Project</text></svg>